<?xml version="1.0" encoding="utf-8"?><svg xmlns="http://www.w3.org/2000/svg" width="248" height="248" viewBox="0 0 248 248"><g transform="translate(-2694 -3362)"><rect width="248" height="248" rx="14" transform="translate(2694 3362)" fill="none"/><g transform="translate(323.681 2485.681)"><path d="M84.5,0A84.5,84.5,0,1,1,0,84.5,84.5,84.5,0,0,1,84.5,0Z" transform="translate(2410.319 916.319)"/><g transform="translate(2432.014 970.388)"><path d="M79.436,73.246c-5.819-.779-10.635-4.455-12.272-9.368-1.375-4.127-.564-7.317,1.933-7.6a2.935,2.935,0,0,1,2.566.713c.722.652.909,1.137,1.068,2.759a8.446,8.446,0,0,0,8.726,7.94,8.718,8.718,0,0,0,4.231-.918A6.977,6.977,0,0,0,89.8,59.76a6.38,6.38,0,0,0-2.752-5.054c-1.377-1.035-3.276-1.9-6.856-3.135-4.953-1.7-7.2-2.8-9.311-4.524-3.926-3.215-5.412-9.122-3.681-14.624a13.153,13.153,0,0,1,3.523-5.782,13.986,13.986,0,0,1,10.3-4.117c7.417.008,13.433,4.607,14.79,11.305A12.027,12.027,0,0,1,96,37.165c-.147,3.1-.912,5.311-2.319,6.719a3.022,3.022,0,0,1-4.955-.572,2.65,2.65,0,0,1,.059-2.705,9.723,9.723,0,0,0,1.045-4.042,8.011,8.011,0,0,0-2.321-5.8,8.256,8.256,0,0,0-4.16-2.359,8.348,8.348,0,0,0-10.228,5.361,9.14,9.14,0,0,0,0,5.2,7.93,7.93,0,0,0,2.457,3.451,27.536,27.536,0,0,0,7.054,3.4c4.93,1.725,6.6,2.5,8.7,4.058a11.186,11.186,0,0,1,4.257,6.034,10.051,10.051,0,0,1,.384,3.677,11.151,11.151,0,0,1-.369,3.731,13.659,13.659,0,0,1-10.681,9.687,20.456,20.456,0,0,1-5.479.237ZM14.64,51.32c-5.894-.93-10.373-4.664-11.745-9.79a15.3,15.3,0,0,1-.076-6.144c.578-2.364,1.972-4.407,3.309-4.849A3.2,3.2,0,0,1,9.5,31.687c.58.79.56,1.729-.072,3.356a7.085,7.085,0,0,0-.608,4.249A7.718,7.718,0,0,0,14.533,45.5a10.685,10.685,0,0,0,4.9-.047,7.07,7.07,0,0,0,4.228-10.22c-1.059-2.009-3.462-3.547-8.368-5.356-5.244-1.934-7.194-3.007-9.35-5.146A10.16,10.16,0,0,1,2.9,19.626a16.245,16.245,0,0,1,0-6.841,13.154,13.154,0,0,1,6.97-8.507,13.344,13.344,0,0,1,6.473-1.444A13.857,13.857,0,0,1,26.9,7.042a11.693,11.693,0,0,1,3.669,7.518c.339,2.984-.773,4.486-3.205,4.331a2.732,2.732,0,0,1-2.749-2.558c-.321-2.719-.914-4.147-2.288-5.522a8.668,8.668,0,0,0-10.5-1.081,7.153,7.153,0,0,0-1.783,10.058c1.228,1.608,3.307,2.793,8.222,4.687a32.424,32.424,0,0,1,6.845,3.2,11.567,11.567,0,0,1,4.9,5.927,13.607,13.607,0,0,1-4.057,14.788,15.859,15.859,0,0,1-5.274,2.623,20.061,20.061,0,0,1-6.042.313ZM46.169,51.3a14.867,14.867,0,0,1-10.916-8.2,12.816,12.816,0,0,1-1.283-6.182,12.557,12.557,0,0,1,1.417-6.3,13.9,13.9,0,0,1,6.735-6.637,12.53,12.53,0,0,1,5.892-1.417,14.169,14.169,0,0,1,8.325,1.942,17.8,17.8,0,0,1,4.105,3.728A17.57,17.57,0,0,1,62.789,33.3c.423,1.562.427,1.631.487,8.6.054,6.277.031,7.1-.214,7.745-.87,2.277-4.508,2.421-5.63.223-.286-.561-.316-1.133-.38-7.31-.058-5.592-.115-6.875-.345-7.751a8.885,8.885,0,0,0-4.418-5.827,8.4,8.4,0,0,0-11.976,6.235,7.242,7.242,0,0,0,.01,3.588,8.827,8.827,0,0,0,2.142,4.163c2.155,2.328,4.5,3.051,8.011,2.471,1.692-.28,2.364-.149,3.166.616,1.695,1.616,1.051,3.858-1.367,4.763a12.6,12.6,0,0,1-6.107.484Zm65.886.012A15.032,15.032,0,0,1,100.438,42.7a14.461,14.461,0,0,1,9.438-19.715,20.456,20.456,0,0,1,7.774-.068c6.255,1.588,10.312,6.333,10.367,12.126a3.545,3.545,0,0,1-.465,2.348,4.228,4.228,0,0,1-1.168,1.349c-1.256.864-2.066.967-7.589.967-4.867,0-5.024-.01-5.725-.368a2.29,2.29,0,0,1-1.436-2.121,1.765,1.765,0,0,1,.313-1.424c.847-1.234.844-1.233,5.4-1.324,3.853-.077,4.108-.1,4.335-.409.5-.675-.176-2.429-1.4-3.656a8.488,8.488,0,0,0-6.09-2.314,7.792,7.792,0,0,0-6.032,2.45,8.909,8.909,0,0,0-.164,12.62,8.312,8.312,0,0,0,6.386,2.6c2.624,0,3.676-.357,7.77-2.636,3.586-2,6.351,1.7,3.363,4.5-3.027,2.832-8.705,4.39-13.458,3.692Z" transform="translate(-2.537 -2.833)" fill="#64d740"/></g></g></g></svg>